<svg
                
                xmlns="http://www.w3.org/2000/svg"
                width="32"
                height="32"
                viewBox="0 0 24 24"
              >
                <path d="M22.4,24a.663.663,0,0,1-.474-.2l-5.333-5.339a3.577,3.577,0,0,1-.4-.481l-1-1.334A9.368,9.368,0,0,1,9.365,18.69H9.334A9.346,9.346,0,0,1,5.3.92,9.322,9.322,0,0,1,16.653,3.548a9.354,9.354,0,0,1-.061,11.67l1.333.922a3.3,3.3,0,0,1,.574.467l5.333,5.34a.667.667,0,0,1-.026.922l-.934.934A.666.666,0,0,1,22.4,24ZM9.365,2.67a6.677,6.677,0,1,0,6.666,6.676A6.679,6.679,0,0,0,9.365,2.67Z" />
              </svg>