<?xml version="1.0" encoding="utf-8"?>
<!-- Generator: Adobe Illustrator 27.1.0, SVG Export Plug-In . SVG Version: 6.00 Build 0)  -->
<svg version="1.1" id="Layer_1" xmlns="http://www.w3.org/2000/svg" xmlns:xlink="http://www.w3.org/1999/xlink" x="0px" y="0px"
	 viewBox="0 0 554 166.11" style="enable-background:new 0 0 554 166.11;" xml:space="preserve">
<style type="text/css">
	.st0{fill:url(#SVGID_1_);}
</style>
<linearGradient id="SVGID_1_" gradientUnits="userSpaceOnUse" x1="359.0527" y1="-50.5961" x2="205.3744" y2="215.5826">
	<stop  offset="0" style="stop-color:#11AA99"/>
	<stop  offset="0.3991" style="stop-color:#189DC9"/>
	<stop  offset="0.5" style="stop-color:#1A9AD6"/>
	<stop  offset="0.707" style="stop-color:#2071B5"/>
	<stop  offset="1" style="stop-color:#2A3180"/>
</linearGradient>
<path class="st0" d="M247.62,43.08h12.88v42.27h-12.88V43.08z M509.14,43.08l0.34,32.17l-25.64-32.17h-20.47v42.27h12.39
	l-0.37-31.84l25.27,31.84h20.65V43.08H509.14z M83.47,37.47l18.1-17.95c0,0,2.12-2.62,4.1-2.62s3.07,1.14,4.06,2.08
	c0.99,0.94,18.44,18.49,18.44,18.49h10.09l-23.73-23.68c0,0-2.22-2.42-4.2-3.11c-1.98-0.69-3.51-0.89-4.45-0.89
	c-0.94,0-2.87,0.2-4.2,0.84c-1.34,0.64-2.47,1.09-4.06,2.67c-1.58,1.58-24.03,24.18-24.03,24.18H83.47z M106.66,121.14
	c-0.2-0.33-0.55-0.55-0.94-0.55c-0.9-0.01-2.67-0.18-4.51-1.25c-0.83-0.48-2.75-1.5-4.21-3.77c-1.69-2.62-8.22-14.25-8.22-14.25
	L60.28,51.98c-0.43-0.75,0.11-1.69,0.97-1.69h13.91c0.4,0,0.77,0.21,0.97,0.55l41.49,70.29c0.4,0.68,1.35,0.75,1.84,0.14
	c0.63-0.78,1.44-1.82,2.15-2.83c1.04-1.48,1.92-3.21,4.25-7.35c9.54-17,33.58-57.99,38.76-66.82c0.44-0.75-0.1-1.69-0.97-1.69
	h-31.51c-0.4,0-0.77,0.21-0.97,0.55l-19.13,32.52c-0.21,0.35-0.21,0.79,0,1.14l3.38,5.81c0.43,0.75,1.52,0.74,1.95-0.01l18.14-31.74
	c0.2-0.35,0.57-0.57,0.98-0.57h14.2c0.86,0,1.41,0.94,0.97,1.69l-31.51,54.54c-0.43,0.74-1.5,0.75-1.94,0.01L80.57,43.14
	c-0.2-0.34-0.57-0.55-0.97-0.55H48.08c-0.87,0-1.41,0.93-0.98,1.68c6.03,10.39,37.92,65.38,36.97,63.75
	c-1.05-1.81,3.94,7.52,7.51,12.58c1.44,2.03,4.13,4.48,7.85,6.12c3.64,1.61,7.34,1.34,9.36,1c0.78-0.13,1.18-1,0.77-1.68
	L106.66,121.14z M217.86,85.35l23.41-42.27h-14.34l-17.05,31.93l-16.71-31.93H179l22.54,42.27H217.86z M270.82,71.88
	c-0.02,1.16-0.03,1.9-0.03,2.23c0,3.04,0.5,5.36,1.49,6.97c1.16,1.88,3.13,3.11,5.91,3.68c2.87,0.6,8.92,0.9,18.15,0.9
	c12.1,0,19.6-0.79,22.51-2.39c3.1-1.69,4.64-5.38,4.64-11.05c0-6.13-1.85-9.97-5.54-11.52c-1.63-0.68-4.43-1.1-8.39-1.24
	c-3.41-0.12-5.51-0.18-6.32-0.18h-11.99c-2.68,0-4.42-0.1-5.2-0.31c-1.82-0.48-2.73-1.6-2.73-3.38c0-1.32,0.45-2.25,1.36-2.79
	c0.64-0.37,1.7-0.61,3.19-0.71c2.73-0.19,6.62-0.28,11.68-0.28c3.61,0,5.67,0.05,6.16,0.16c2.29,0.47,3.45,1.81,3.47,3.99h12.54
	v-1.46c0-3.16-0.57-5.57-1.7-7.25c-1.24-1.84-3.36-3.09-6.35-3.75c-2.25-0.5-7.77-0.74-16.57-0.74c-6.15,0-10.26,0.09-12.32,0.28
	c-5.22,0.47-8.79,1.5-10.68,3.07c-2.29,1.86-3.44,5.24-3.44,10.16c0,3.08,0.39,5.45,1.18,7.12c1.03,2.19,2.83,3.67,5.39,4.46
	c2.02,0.62,5.91,0.93,11.65,0.93h11.64c3.72,0,5.88,0.04,6.5,0.12c2.48,0.33,3.72,1.56,3.72,3.69c0,1.71-0.85,2.86-2.54,3.44
	c-0.91,0.31-2.49,0.48-4.74,0.53c-5.57,0.1-8.73,0.14-9.48,0.12l-4.99-0.15c-1.59-0.04-2.75-0.19-3.47-0.43
	c-0.89-0.29-1.47-0.85-1.76-1.67c-0.16-0.47-0.27-1.32-0.31-2.54H270.82 M373.94,69.43c-0.04,2.72-0.88,4.44-2.51,5.14
	c-1.3,0.56-5.57,0.84-12.82,0.84c-3.08,0-5.08-0.04-6.01-0.12c-2.75-0.25-4.6-0.86-5.54-1.83c-1.18-1.2-1.76-4.13-1.76-8.79
	c0-2.52,0.04-4.36,0.12-5.51c0.25-3.41,1.86-5.39,4.83-5.94c1.12-0.21,4.75-0.31,10.9-0.31c3.88,0,5.93,0.01,6.16,0.03
	c3.07,0.21,4.93,0.87,5.57,1.98c0.33,0.58,0.55,1.57,0.65,2.97h12.29v-1.45c0-3.34-0.44-5.93-1.33-7.74
	c-1.14-2.31-3.17-3.91-6.1-4.8c-2.46-0.74-9.22-1.12-20.28-1.12c-8.75,0-14.57,0.55-17.46,1.64c-3.65,1.38-6.04,3.96-7.16,7.74
	c-0.62,2.1-0.93,5.8-0.93,11.09c0,6.81,0.5,11.66,1.49,14.55c1.42,4.17,4.88,6.61,10.37,7.31c2.89,0.37,7.09,0.56,12.6,0.56
	c6.73,0,11.23-0.04,13.5-0.12c3.32-0.12,5.83-0.38,7.52-0.77c3.43-0.81,5.74-2.39,6.94-4.77c0.93-1.82,1.39-4.7,1.39-8.64v-1.92
	H373.94 M424.32,52.96c4.17,0,6.5,0.01,7,0.03c3.03,0.12,5.03,0.4,5.98,0.84c1.63,0.72,2.62,2.3,2.97,4.74
	c0.12,0.87,0.19,2.56,0.19,5.08c0,3.28-0.09,5.4-0.28,6.35c-0.5,2.52-1.68,4.08-3.56,4.67c-1.67,0.54-6.35,0.81-14.03,0.81
	c-2.85,0-5.27-0.07-7.28-0.22c-3.45-0.25-5.49-1.49-6.13-3.72c-0.43-1.51-0.65-4.05-0.65-7.62c0-2.73,0.09-4.58,0.28-5.57
	c0.43-2.31,1.39-3.78,2.88-4.4C413.27,53.29,417.49,52.96,424.32,52.96 M422.52,42.65c-5.88,0-10.37,0.16-13.44,0.46
	c-6.52,0.66-10.6,3.19-12.23,7.59c-0.68,1.84-1.1,4.04-1.27,6.59c-0.06,0.97-0.09,3.23-0.09,6.78c0,5.24,0.18,8.82,0.53,10.71
	c0.82,4.48,2.82,7.46,5.98,8.95c2.25,1.07,5.88,1.72,10.9,1.95c1.32,0.06,5.05,0.09,11.18,0.09c7.1,0,12.22-0.12,15.36-0.37
	c7.08-0.56,11.36-3.61,12.82-9.16c0.66-2.5,0.99-6.41,0.99-11.74c0-2.41-0.03-4.45-0.09-6.1c-0.1-2.85-0.39-5.11-0.87-6.78
	c-1.3-4.58-4.64-7.36-10.03-8.33C439.85,42.86,433.28,42.65,422.52,42.65 M509.14,43.08l0.34,32.17l-25.64-32.17h-20.47v42.27h12.39
	l-0.37-31.84l25.27,31.84h20.65V43.08H509.14z M358.41,109.15c0-1.89-0.12-3.32-0.37-4.31c-0.71-2.79-2.96-4.36-6.74-4.72
	c-1.69-0.16-4.93-0.23-9.71-0.23c-6.16,0-10.22,0.25-12.19,0.77c-2.48,0.64-4.12,2.01-4.93,4.11c-0.66,1.69-0.98,4.73-0.98,9.1
	c0,3.93,0.28,6.68,0.83,8.24c1.02,2.9,3.57,4.5,7.65,4.82c1.7,0.13,4.47,0.2,8.29,0.2c5.86,0,9.27-0.01,10.24-0.04
	c4.31-0.12,6.82-1.82,7.51-5.11c0.27-1.3,0.41-3.45,0.41-6.45v-3.72h-18.3v5.01h10.34c0.01,0.37,0.02,0.64,0.02,0.8
	c0,1.1-0.24,1.89-0.72,2.35c-0.48,0.47-1.27,0.76-2.39,0.88c-0.5,0.05-1.86,0.08-4.09,0.08c-3.87,0-5.98-0.01-6.33-0.02
	c-2.48-0.09-4.03-0.74-4.66-1.94c-0.41-0.77-0.61-2.39-0.61-4.86c0-1.97,0.04-3.43,0.12-4.35c0.12-1.39,0.57-2.34,1.35-2.86
	c0.64-0.43,1.7-0.65,3.17-0.65l2.6-0.04c1.26-0.03,2.32-0.03,3.19-0.02h2.87h2.12c2.14,0.04,3.25,1.03,3.32,2.97H358.41 M373,106.67
	h13.07c1.81,0,2.98,0.2,3.5,0.61c0.62,0.47,0.92,1.56,0.92,3.26c0,1.42-0.46,2.31-1.38,2.69c-0.54,0.22-1.65,0.34-3.34,0.34H373
	V106.67z M373,126.92v-6.78h12.56c1.13,0,1.91,0.03,2.36,0.1c1.43,0.21,2.15,1.32,2.15,3.34v3.34h8.28v-4.25
	c0-2.61-0.65-4.32-1.95-5.13c-0.64-0.41-1.92-0.66-3.83-0.75c-0.58-0.03-1.02-0.05-1.34-0.08c2.66-0.38,4.4-0.86,5.21-1.44
	c1.52-1.08,2.28-3.22,2.28-6.45c0-2-0.24-3.62-0.71-4.84c-0.68-1.76-2.08-2.91-4.21-3.46c-1.17-0.3-3.09-0.45-5.76-0.45h-23.18
	v26.84H373z M422.97,106.35c2.65,0,4.13,0.01,4.44,0.02c1.93,0.08,3.19,0.26,3.79,0.53c1.04,0.46,1.66,1.46,1.89,3.01
	c0.08,0.55,0.12,1.63,0.12,3.22c0,2.08-0.06,3.43-0.18,4.03c-0.31,1.6-1.07,2.59-2.26,2.97c-1.06,0.34-4.03,0.51-8.91,0.51
	c-1.81,0-3.35-0.05-4.62-0.14c-2.19-0.16-3.49-0.95-3.89-2.36c-0.28-0.96-0.41-2.57-0.41-4.84c0-1.73,0.06-2.91,0.18-3.54
	c0.27-1.47,0.89-2.4,1.83-2.79C415.96,106.57,418.64,106.35,422.97,106.35 M421.83,99.81c-3.74,0-6.58,0.1-8.53,0.29
	c-4.14,0.42-6.73,2.03-7.77,4.82c-0.43,1.17-0.7,2.56-0.8,4.19c-0.04,0.62-0.06,2.05-0.06,4.31c0,3.33,0.11,5.6,0.33,6.8
	c0.52,2.84,1.79,4.74,3.8,5.68c1.43,0.68,3.73,1.09,6.92,1.24c0.84,0.04,3.21,0.06,7.1,0.06c4.51,0,7.76-0.08,9.75-0.24
	c4.5-0.35,7.21-2.29,8.14-5.82c0.42-1.59,0.63-4.07,0.63-7.45c0-1.53-0.02-2.83-0.06-3.87c-0.07-1.81-0.25-3.24-0.55-4.3
	c-0.83-2.91-2.95-4.67-6.37-5.29C432.84,99.95,428.66,99.81,421.83,99.81 M447.67,114.51c0,2.96,0.16,5.15,0.47,6.57
	c0.77,3.47,3.35,5.42,7.73,5.84c1.64,0.16,4.53,0.23,8.67,0.23c5.05,0,7.02,0.01,5.94,0.04c2.52-0.07,4.48-0.33,5.88-0.79
	c2.92-0.96,4.69-2.74,5.31-5.37c0.3-1.29,0.45-3.58,0.45-6.9v-14.06h-8.16v12.31v2.32c0.01,1.72-0.12,2.98-0.39,3.8
	c-0.42,1.25-1.55,1.94-3.4,2.08c-1.18,0.09-3.23,0.14-6.17,0.14c-1.98,0-3.43-0.06-4.36-0.18c-2.1-0.26-3.3-1.23-3.61-2.91
	c-0.12-0.63-0.18-1.73-0.18-3.32V114v-0.69v-13.23h-8.18V114.51z M497.07,106.63h11.87c1.69,0,2.81,0.23,3.36,0.69
	c0.63,0.52,0.94,1.6,0.94,3.22c0,1.36-0.39,2.27-1.18,2.73c-0.58,0.34-1.62,0.51-3.13,0.51h-11.87V106.63z M497.07,126.92v-6.61
	h13.13c1.85,0,3.32-0.06,4.4-0.18c1.59-0.17,2.84-0.55,3.76-1.14c2.02-1.3,3.03-4.33,3.03-9.1c0-2.12-0.2-3.8-0.59-5.03
	c-0.56-1.77-1.6-3.03-3.11-3.77c-1.03-0.51-2.38-0.83-4.03-0.94c-0.56-0.04-1.95-0.06-4.17-0.06h-20.56v26.84H497.07z M157.14,66.45
	l12.81,12.85c0,0,1.28,1.19,1.78,2.32c0.27,0.62,0.3,0.96,0.3,1.46c0,0.57-0.15,1.7-0.84,2.54c-0.69,0.84-61.17,61.21-61.17,61.21
	s-1.04,1.19-1.83,1.68c-0.79,0.49-1.43,0.59-2.03,0.64c-0.59,0.05-1.73-0.05-2.37-0.5c-0.64-0.45-1.88-1.63-1.88-1.63L41.79,86.81
	l-0.8-0.74c0,0-0.71-0.85-0.86-1.19c-0.15-0.35-0.35-0.96-0.37-1.38c-0.03-0.42,0-0.94,0.15-1.61c0.15-0.67,0.55-1.22,1.08-1.8
	c0.53-0.58,13.38-13.38,13.38-13.38l-3.59-6.51L35.95,75.05c0,0-1.67,1.68-2.34,3.36c-0.67,1.68-1.09,3.29-0.99,5.31
	c0.1,2.03,0.79,3.58,1.21,4.52c0.42,0.94,1.46,2.2,1.66,2.42c0.2,0.22,62.37,62.36,62.37,62.36s1.59,1.55,2.9,2.12
	c1.31,0.57,2.82,1.19,4.55,1.19c1.73,0,2.79-0.02,5.02-0.84c2.23-0.82,4.5-3.36,4.5-3.36l61.29-61.31c0,0,1.51-1.51,2.22-3.43
	c0.72-1.93,0.74-2.72,0.79-3.44c0.05-0.72,0.1-2.35-0.37-3.98c-0.47-1.63-1.36-3.02-1.61-3.36c-0.25-0.35-1.43-1.68-1.73-2
	c-0.3-0.32-14.64-14.61-14.64-14.61L157.14,66.45z"/>
</svg>
